# xmcd
#
# Track frame offsets: 
#        150
#        13342
#        27683
#        42381
#        54814
#        72237
#        90508
#        106594
#        122057
#        135189
#        154651
#        169645
#        189268
#        202229
#        215326
#        239400
#
# Disc length: 3463 seconds
#
# Revision: 0
# Processed by: cddbd v1.5.2PL0 Copyright (c) Steve Scherf et al.
# Submitted via: ExactAudioCopy v1.3
#
DISCID=d40d8510
DTITLE=Alison Krauss - Windy City (Deluxe)
DYEAR=2017
DGENRE=Country
TTITLE0=Losing You
TTITLE1=It's Goodbye and So Long To You
TTITLE2=Windy City
TTITLE3=I Never Cared For You
TTITLE4=River in the Rain
TTITLE5=Dream of Me
TTITLE6=Gentle on My Mind
TTITLE7=All Alone Am I
TTITLE8=Poison Love
TTITLE9=You Don't Know Me
TTITLE10=Windy City (Live)
TTITLE11=River in the Rain (Live)
TTITLE12=Losing You (Live)
TTITLE13=I Never Cared For You (Live)
TTITLE14=Till I Gain Control Again
TTITLE15=Angel Flying Too Close to the Ground
EXTD=
EXTT0=
EXTT1=
EXTT2=
EXTT3=
EXTT4=
EXTT5=
EXTT6=
EXTT7=
EXTT8=
EXTT9=
EXTT10=
EXTT11=
EXTT12=
EXTT13=
EXTT14=
EXTT15=
PLAYORDER=
